<?xml version="1.0" standalone="no"?>
<!DOCTYPE svg PUBLIC "-//W3C//DTD SVG 20010904//EN"
 "http://www.w3.org/TR/2001/REC-SVG-20010904/DTD/svg10.dtd">
<svg version="1.0" xmlns="http://www.w3.org/2000/svg"
 width="120.000000pt" height="120.000000pt" viewBox="0 0 120.000000 120.000000"
 preserveAspectRatio="xMidYMid meet">
<metadata>
Created by potrace 1.14, written by Peter Selinger 2001-2017
</metadata>
<g transform="translate(0.000000,120.000000) scale(0.100000,-0.100000)"
fill="#000000" stroke="none">
<path d="M349 1071 c-144 -86 -214 -134 -214 -145 0 -12 74 -62 230 -155 191
-115 233 -136 250 -128 80 39 455 272 455 282 0 13 -353 235 -415 261 -65 27
-83 20 -306 -115z"/>
<path d="M78 823 c-2 -10 -4 -128 -3 -263 1 -268 5 -287 62 -328 74 -52 379
-232 394 -232 10 0 21 10 25 22 4 13 7 139 7 282 l0 259 -148 88 c-81 49 -149
89 -152 89 -2 0 -23 13 -46 29 -39 26 -121 71 -130 71 -3 0 -7 -8 -9 -17z"/>
<path d="M866 701 l-229 -138 0 -267 c1 -266 4 -296 36 -296 13 0 372 215 401
239 46 40 50 62 51 326 1 138 -1 256 -3 263 -2 6 -9 12 -16 11 -6 0 -114 -62
-240 -138z"/>
</g>
</svg>
