<svg width="200" height="200" viewBox="0 0 200 200" fill="none" xmlns="http://www.w3.org/2000/svg">
<path d="M177.418 42.9495L112.582 3.5433C104.804 -1.18326 95.1912 -1.18326 87.4139 3.5433L22.5818 42.9495C20.5037 44.2113 20.5154 47.3519 22.6053 48.598L99.9998 94.7464L177.398 48.598C179.488 47.3519 179.5 44.2152 177.418 42.9495ZM182.824 60.3831L106.25 106.039L106.25 193.469C106.25 198.5 111.48 201.637 115.644 199.106L175.082 162.981C182.769 158.309 187.5 149.723 187.5 140.442V63.2152C187.5 60.7113 184.906 59.1409 182.824 60.3831ZM12.4998 63.2152L12.4998 140.442C12.4998 149.727 17.2303 158.309 24.9178 162.981L84.3553 199.102C88.5232 201.633 93.7498 198.5 93.7498 193.465L93.7498 106.039L17.1756 60.3831C15.0936 59.1409 12.4998 60.7113 12.4998 63.2152Z" fill="url(#paint0_linear_16_7)"/>
<defs>
<linearGradient id="paint0_linear_16_7" x1="187.5" y1="99.9997" x2="12.4998" y2="99.9997" gradientUnits="userSpaceOnUse">
<stop stop-color="#ECC94B"/>
<stop offset="1" stop-color="#48BB78"/>
</linearGradient>
</defs>
</svg>
